<svg xmlns="http://www.w3.org/2000/svg" xml:space="preserve" id="Layer_group_1_" x="0" y="0" viewBox="272.15 648.13 1396.28 387.95"><style>.st0{fill:#fff}</style><path d="M754.23 777.76c-1.02-9.63-4.36-17.34-10.01-23.13s-13.37-9.6-23.15-11.43c-3.46-.64-7.68-1.18-12.65-1.59-.66 0-1.33-.01-2-.01-6.83 0-13.65-.01-20.49-.02-1.6 0-3.21-.01-4.82-.01h-15.03c-3.26 0-6.51-.02-9.76-.02h-4.22a.3.3 0 0 0-.18-.07h-72.46a.26.26 0 0 1-.21.11h-25.28c-.04.03-.09.05-.13.05-.2 0-.39-.01-.58-.01-.15-.01-.31-.01-.47-.02a6 6 0 0 1-.58-.06c-.11-.02-.22-.04-.33-.07h-5.09c-.16.03-.33.05-.49.06h-.01c-.03 0-.06 0-.09-.02-.03.07-.06.11-.08.17-.08.17-.16.35-.23.53-.02.07-.07.11-.13.14-2.14 4.52-4.29 9.04-6.43 13.57-4.6 7.7-7.46 16.55-11.71 24.44-10.01 21.17-20.02 42.35-30.03 63.53-13.93 29.49-27.87 58.97-41.81 88.46-4.63-7.55-9.26-15.1-13.9-22.66-6.05-9.87-12.1-19.74-18.16-29.61-6.95-11.35-13.91-22.69-20.86-34.03-3.74-6.09-10.13-10.49-17.05-12.09-7.16-1.65-14.81-.36-21.01 3.58a27 27 0 0 0-5.66 4.81c-3.37 2.23-6.25 5.2-8.29 8.67-.18.31-.36.61-.53.91-5.83 9.9-11.65 19.79-17.47 29.68-6.08 10.33-12.14 20.66-18.23 30.98-6.15 10.42-12.28 20.86-18.41 31.29-6.71 11.38-13.41 22.77-20.11 34.15-3.76 6.39-4.95 14.01-3.07 21.21 1.8 6.91 6.33 12.96 12.44 16.65 4.31 2.61 9.3 3.96 14.3 3.96 2.32 0 4.65-.29 6.91-.88 6.85-1.79 13.05-6.32 16.65-12.45.35-.59.71-1.19 1.06-1.79 6.52-11.08 13.04-22.16 19.56-33.25 6.01-10.21 12.02-20.41 18.03-30.62 5.6-9.52 11.21-19.04 16.81-28.57.4.64.79 1.28 1.18 1.92 6.21 10.13 12.42 20.25 18.62 30.38 6.18 10.08 12.37 20.16 18.55 30.24 6.06 9.88 12.11 19.75 18.17 29.63 3.73 6.09 10.13 10.49 17.05 12.09 1.51.35 3.04.56 4.57.66-.01.02-.01.03-.02.05h69.14c35.36-.25 57.88-.88 67.58-1.89 15.46-1.63 29.91-6.01 43.31-13.12s25.83-16.62 37.27-28.51c11.45-11.9 20.17-24.14 26.15-36.73q11.4-23.97 6.39-41.73c-3.34-11.82-12.18-20.2-26.53-25.11q21.6-8.115 39.69-24.36c12.05-10.82 21.17-22.72 27.33-35.68 5.69-11.96 8.02-22.76 6.99-32.38M644.46 934.38c-4.66 9.82-10.98 17.66-18.92 23.51-7.95 5.85-16.4 9.53-25.33 11.05-5.9 1.13-18.8 1.69-38.73 1.69h-51.17l35.19-74.01h44.64c25.15 0 40.86 1.32 47.14 3.96 6.28 2.65 10.03 6.87 11.26 12.65q1.845 8.685-4.08 21.15m45.22-116.31c-4.25 8.94-10.38 16.14-18.4 21.62-8.02 5.47-17.03 8.78-27.03 9.91-5.54.63-19.07.94-40.61.94H567.4l30.44-64h31.75c26.02 0 41.62.31 46.8.94 8.68 1.13 14.08 4.37 16.21 9.72 2.12 5.36 1.15 12.31-2.92 20.87" class="st0"/><path d="M567.57 741.59h-7.89c2.61-.37 5.27-.38 7.89 0M571.8 718.75c-7.72-7.71-12.12-18.33-12.12-29.25s4.4-21.53 12.12-29.25c7.71-7.72 18.33-12.12 29.25-12.12s21.53 4.4 29.25 12.12c7.72 7.71 12.12 18.33 12.12 29.25s-4.4 21.53-12.12 29.25c-7.71 7.72-18.33 12.12-29.25 12.12s-21.54-4.4-29.25-12.12M456.97 820.34c0 .18-.05 3.44-.38 3.44h-99.2c-.09 0-.15-.24-.2-.57-2.64-.28-4.99-1.65-6.58-3.65-.18.11-.31.18-.41.22-11.86-19.41-23.7-38.82-35.56-58.23-5.05-8.27-10.09-16.54-15.14-24.81-1.1-.91.61-1.91 1.15-2.38 3.4-2.9 10.05-8.08 13.8-9.99l6.78 11.1c14.04 23 28.08 46 42.13 69.01h93.23c.26 0 .32 2.19.32 2.27.26 4.52.23 9.07.06 13.59M767.58 911.07l-39.17-4.05c4.71-13.18 12.72-23.42 24.01-30.7s26.14-10.76 44.54-10.44c19.15.33 33.23 4.43 42.25 12.3s13.43 17.36 13.24 28.47c-.08 4.48-.56 9.24-1.44 14.27s-3.89 18.25-9.03 39.65q-6.345 26.52-6.54 37.17c-.11 6.35.89 13.42 2.99 21.22l-39.09-.68c-1.5-5.44-2.38-11.07-2.65-16.87-6 6.44-12.86 11.34-20.58 14.71s-15.46 4.99-23.21 4.85c-12.33-.21-22.44-4.43-30.33-12.65s-11.73-18.68-11.51-31.39c.25-14.2 4.86-25.47 13.84-33.82s24.83-13.21 47.56-14.59q28.77-1.875 38.49-5.07c1.78-5.58 2.7-10.04 2.76-13.41.07-4.29-1.59-7.92-5-10.88s-8.52-4.49-15.34-4.61c-7.19-.13-12.89 1.25-17.1 4.12-4.21 2.88-7.11 7.01-8.69 12.4m37.6 37.94c-2.44.61-5.67 1.16-9.7 1.65-20.22 2.08-33.45 5.4-39.7 9.96-4.45 3.29-6.72 7.78-6.82 13.48-.08 4.67 1.53 8.65 4.84 11.93s7.71 4.97 13.23 5.07c6.07.11 11.82-1.27 17.24-4.11 5.42-2.85 9.51-6.56 12.25-11.14s5.23-11.75 7.45-21.52ZM961.53 965.06l38.98 6.99q-10.125 25.89-29.28 39.15c-12.77 8.84-27.47 13.12-44.09 12.83-18.96-.33-33.9-6.24-44.82-17.74s-16.21-27.15-15.86-46.95c.28-16.16 3.91-31.37 10.89-45.64s17.31-25.42 31-33.45 28.61-11.9 44.77-11.62q26.34.465 41.79 14.46c10.3 9.34 15.98 21.49 17.03 36.46l-38.32 3.4c-.79-8.33-3.23-14.49-7.32-18.49s-9.5-6.05-16.22-6.17q-11.625-.21-21.87 8.31c-6.83 5.67-12.14 14.25-15.94 25.72s-5.78 22.25-5.96 32.34q-.225 13.17 6.09 20.43c4.21 4.84 9.54 7.31 15.99 7.43 6.44.11 12.7-2.11 18.76-6.68 6.06-4.58 10.85-11.5 14.38-20.78M1009.66 1021.96l46.6-204.66 40.21.7-24.28 106.52 53.28-49.39 52.26.91-60.77 53.04 30.15 95.27-40.21-.7-19.26-69.15-27.6 23.62-10.17 44.53ZM1192.52 876.3l37.55.66-6.53 28.76c14.39-21.33 29.76-31.86 46.1-31.57 5.79.1 11.98 1.66 18.56 4.67l-15.99 32.66c-3.62-1.37-7.49-2.09-11.6-2.16-6.91-.12-13.99 2.37-21.23 7.48s-12.94 11.99-17.11 20.65c-4.17 8.67-8.38 22.44-12.63 41.34l-10.62 46.49-40.21-.7ZM1409.79 966.99l-100.88-1.76c-.12 1.59-.19 2.8-.2 3.64-.17 9.9 2.51 17.94 8.06 24.11 5.54 6.17 12.38 9.33 20.51 9.47 13.36.23 23.89-6.5 31.61-20.19l35.9 6.65c-7.26 14.36-16.81 25.05-28.66 32.09s-25.06 10.42-39.63 10.17c-19.99-.35-36.13-6.96-48.43-19.84s-18.26-29.73-17.9-50.56c.36-20.36 6.32-38.38 17.9-54.07 15.79-21.21 37.97-31.57 66.56-31.07 18.22.32 32.59 6.2 43.14 17.64 10.54 11.45 15.64 27.3 15.29 47.57-.18 9.72-1.26 18.43-3.27 26.15m-33.48-25.11c.12-1.77.19-3.13.21-4.06q.285-16.53-6.99-24.93c-4.86-5.6-11.44-8.47-19.75-8.61-8.32-.15-15.82 2.85-22.51 9-6.7 6.14-11.32 15.31-13.87 27.51ZM1410.07 987.32l39.06-5.49c3.31 8.28 7.51 14.17 12.59 17.67s12.05 5.33 20.93 5.48c9.15.16 16.52-1.76 22.11-5.78 3.88-2.73 5.85-6.11 5.92-10.13.05-2.71-.89-5.15-2.82-7.34-2.02-2.09-7.53-4.71-16.54-7.86-24.15-8.46-39.08-15.07-44.78-19.84-8.94-7.44-13.3-17.05-13.09-28.82s4.77-21.83 13.7-30.18c12.44-11.65 30.71-17.26 54.82-16.84 19.15.33 33.57 4.09 43.25 11.27s15.73 16.77 18.14 28.77l-37.24 5.8c-1.87-5.45-4.97-9.57-9.32-12.36-5.92-3.75-13.08-5.69-21.48-5.84-8.41-.15-14.48 1.15-18.22 3.89q-5.61 4.11-5.7 9.57c-.07 3.74 1.75 6.85 5.44 9.34 2.31 1.54 9.78 4.28 22.42 8.24 19.52 6.04 32.54 11.87 39.08 17.5 9.2 7.92 13.71 17.34 13.52 28.27-.25 14.11-6.39 26.24-18.44 36.4-12.04 10.16-28.85 15.06-50.43 14.68-21.49-.38-38.02-4.61-49.6-12.71-11.6-8.09-19.37-19.32-23.32-33.69M1577.39 912.87l6.69-29.74 19.62.34 5.32-23.73 46.58-26.94-11.69 51.37 24.52.43-6.69 29.74-24.66-.43-14.12 62.12c-2.53 11.26-3.81 17.69-3.84 19.27-.05 3.08.89 5.51 2.82 7.27s5.47 2.69 10.6 2.78c1.77.03 6.22-.22 13.33-.75l-6.83 29.73c-6.94 1.28-14.05 1.86-21.33 1.73-14.2-.25-24.47-3.16-30.82-8.74s-9.44-13.22-9.27-22.94c.08-4.58 1.99-15.1 5.74-31.58l13.51-59.61Z" class="st0"/></svg>